# xmcd
#
# Track frame offsets:
#	150
#	41915
#	82750
#	119243
#	137390
#	157869
#	208968
#	230035
#	266005
#
# Disc length: 4130 seconds
#
# Revision: 0
# Processed by: cddbd v1.5.2PL0 Copyright (c) Steve Scherf et al.
# Submitted via: audiograbber 1.83.01
#
DISCID=7d102009
DTITLE=Grateful Dead - 94-03-04 Desert Sky Pavilion, Phoenix AZ
DYEAR=1900
DGENRE=
TTITLE0=Mississippi Half-Step Uptown Toodeloo
TTITLE1=Little Red Rooster
TTITLE2=Ramble On Rose
TTITLE3=Me and My Uncle
TTITLE4=Big River
TTITLE5=Bird Song
TTITLE6=Promised Land
TTITLE7=Iko Iko
TTITLE8=Looks Like Rain
EXTD=
EXTT0=
EXTT1=
EXTT2=
EXTT3=
EXTT4=
EXTT5=
EXTT6=
EXTT7=
EXTT8=
PLAYORDER=
